<?xml version="1.0" standalone="no"?>
<!DOCTYPE svg PUBLIC "-//W3C//DTD SVG 20010904//EN"
 "http://www.w3.org/TR/2001/REC-SVG-20010904/DTD/svg10.dtd">
<svg version="1.0" xmlns="http://www.w3.org/2000/svg"
 width="1280.000000pt" height="640.000000pt" viewBox="0 0 1280.000000 640.000000"
 preserveAspectRatio="xMidYMid meet">
<metadata>
Created by potrace 1.15, written by Peter Selinger 2001-2017
</metadata>
<g transform="translate(0.000000,640.000000) scale(0.100000,-0.100000)"
fill="#000000" stroke="none">
<path d="M5333 6068 c-29 -14 -29 -35 1 -184 13 -66 27 -144 31 -174 12 -93
73 -363 93 -410 55 -131 89 -395 57 -450 -8 -14 -18 -34 -24 -46 -6 -14 -22
-23 -49 -27 -75 -13 -125 -81 -102 -141 16 -43 14 -49 -51 -146 l-61 -90 4
-128 c4 -158 11 -175 92 -207 33 -13 75 -38 95 -55 20 -16 53 -39 74 -50 44
-24 53 -40 38 -69 -9 -17 -7 -28 14 -58 13 -21 27 -54 30 -73 5 -29 4 -31 -4
-13 -13 28 -28 23 -99 -30 -74 -56 -74 -53 -10 -97 4 -3 -4 -39 -18 -80 -15
-42 -26 -98 -27 -129 -1 -49 3 -60 29 -87 16 -17 39 -51 52 -77 25 -51 25 -50
-33 -188 -34 -81 -30 -103 27 -165 l41 -45 -6 -133 c-4 -79 -12 -149 -21 -172
-34 -90 -46 -298 -21 -380 12 -41 22 -54 54 -72 52 -29 66 -67 86 -235 13
-107 14 -149 6 -188 -6 -27 -11 -104 -11 -170 0 -108 2 -125 25 -169 15 -29
37 -56 54 -64 21 -11 30 -25 35 -53 14 -85 0 -147 -45 -198 -17 -19 -34 -47
-38 -62 l-7 -28 -224 -7 c-194 -7 -225 -6 -233 7 -10 19 -78 20 -133 1 -28
-10 -111 -17 -265 -21 -123 -3 -234 -8 -246 -11 -18 -3 -24 4 -37 42 -8 26
-33 66 -55 89 -45 49 -61 95 -61 181 0 59 1 61 38 85 32 21 39 32 50 84 15 74
9 122 -28 223 -44 121 -64 239 -64 387 -1 138 6 181 56 335 l31 94 -16 62
c-21 76 -21 126 -2 179 21 59 19 96 -5 102 -25 7 -33 32 -24 77 6 36 24 40 24
6 0 -22 54 -70 79 -70 10 0 26 9 36 20 10 11 26 20 36 20 26 0 38 28 60 142
22 112 24 118 45 118 20 0 34 42 34 106 0 30 4 54 9 54 5 0 23 13 39 28 29 28
30 31 20 71 -8 33 -7 64 5 139 9 53 21 149 27 212 9 94 16 123 37 160 l26 44
-18 70 c-9 38 -27 91 -38 118 -15 38 -18 54 -10 71 8 17 7 32 -4 57 -7 19 -18
55 -24 80 -11 48 -52 120 -70 120 -6 0 -44 14 -86 31 -56 24 -89 46 -132 90
-33 33 -70 60 -87 64 -50 11 -54 14 -54 33 0 90 94 222 158 222 43 0 48 17 28
98 -22 90 -21 98 14 112 40 16 50 37 50 99 0 45 -3 53 -32 75 -31 23 -52 30
-176 55 -81 17 -152 50 -152 72 0 40 -100 56 -120 19 -6 -10 -42 -39 -80 -64
-40 -26 -80 -62 -96 -86 -26 -39 -27 -42 -14 -94 11 -47 10 -63 -9 -145 -11
-51 -21 -96 -21 -101 0 -5 21 -23 46 -41 103 -70 112 -224 18 -310 -22 -20
-42 -28 -84 -31 -44 -3 -67 -13 -116 -46 -33 -22 -69 -51 -80 -63 -34 -38
-145 -112 -154 -103 -11 11 -60 140 -60 159 0 7 7 21 16 30 13 12 15 26 9 61
-6 40 -4 48 14 61 27 18 29 89 4 136 -9 18 -26 64 -38 102 l-22 70 -59 0 c-54
0 -59 2 -66 25 -40 136 -82 294 -88 335 -4 28 -16 67 -26 87 -14 30 -15 43 -6
62 15 33 -1 46 -59 46 l-47 0 -58 171 c-58 172 -81 218 -102 205 -21 -13 -13
-54 33 -169 25 -61 50 -140 55 -174 6 -34 13 -69 16 -77 4 -11 -6 -22 -30 -37
-20 -11 -36 -23 -36 -25 0 -2 16 -43 35 -91 19 -48 35 -90 35 -94 0 -4 -15
-10 -32 -14 -47 -10 -78 -32 -78 -55 0 -17 7 -20 50 -20 27 0 70 -7 95 -15 25
-9 50 -13 55 -10 19 12 22 -73 6 -199 -21 -168 -21 -274 0 -161 l7 40 13 -40
c21 -65 16 -115 -14 -170 -16 -27 -33 -49 -39 -48 -19 4 -27 -55 -26 -184 2
-135 19 -220 58 -287 14 -24 36 -79 49 -122 13 -43 34 -104 46 -134 20 -51 22
-65 15 -186 l-6 -132 32 -36 c18 -21 58 -50 89 -66 l57 -29 -10 -40 c-10 -36
-9 -41 12 -58 l23 -19 -26 -84 c-28 -94 -90 -359 -112 -483 -7 -43 -25 -99
-39 -124 -19 -35 -25 -60 -25 -107 0 -92 17 -191 40 -233 22 -41 26 -121 11
-183 -12 -46 -54 -151 -88 -218 -18 -37 -26 -71 -28 -115 -1 -36 -17 -114 -39
-187 l-37 -125 45 -40 45 -40 -22 -56 c-26 -63 -77 -131 -110 -147 -12 -6 -39
-16 -59 -22 -44 -13 -74 -48 -88 -101 l-11 -39 -112 0 c-81 0 -120 4 -142 16
-24 12 -69 15 -253 13 -169 -1 -226 2 -232 11 -5 8 -19 10 -41 6 -19 -4 -81
-11 -139 -16 -79 -7 -108 -6 -117 3 -24 24 -43 130 -43 239 0 122 -12 105 104
150 57 22 61 25 78 76 10 29 30 97 43 150 25 96 25 97 9 168 l-17 71 32 64
c60 119 76 145 119 199 38 47 42 58 42 107 0 30 7 71 16 90 14 29 15 40 4 76
-15 54 -125 269 -154 305 -13 15 -41 55 -64 88 -42 63 -119 131 -184 165 -21
11 -38 24 -38 30 0 6 -5 7 -10 4 -13 -8 -80 14 -80 26 0 5 6 9 12 9 7 0 -4 11
-25 25 -42 29 -43 32 -20 57 18 21 6 23 -31 7 -22 -10 -29 -8 -61 20 -20 17
-42 31 -50 31 -26 0 -22 42 6 81 10 15 19 38 19 52 0 14 7 28 16 31 25 10 92
7 99 -4 10 -16 25 -12 25 8 0 9 -13 55 -29 102 -16 47 -34 126 -40 175 -7 55
-19 100 -30 115 -10 14 -53 42 -95 63 -49 25 -81 48 -88 63 -22 47 -98 41
-117 -9 -7 -17 -25 -29 -62 -41 -88 -29 -148 -64 -154 -89 -2 -12 -16 -74 -30
-137 -36 -158 -47 -229 -40 -250 4 -13 18 -20 43 -22 32 -3 37 -7 40 -31 2
-16 11 -31 20 -34 49 -18 88 -65 64 -75 -5 -1 -15 -16 -23 -33 -22 -44 -63
-38 -107 15 -24 29 -39 39 -52 35 -14 -5 -36 16 -92 87 -41 51 -128 152 -192
223 -138 152 -758 777 -764 770 -7 -7 27 -57 96 -141 57 -70 76 -106 37 -74
-9 7 -18 10 -22 7 -6 -6 59 -98 176 -250 34 -45 65 -88 68 -95 3 -7 -3 -22
-13 -33 -16 -18 -19 -37 -19 -118 1 -53 4 -118 9 -144 6 -41 9 -46 19 -32 10
13 15 5 30 -54 15 -55 26 -77 53 -101 19 -16 40 -30 47 -30 7 0 4 5 -6 11 -23
14 -45 57 -72 150 -13 43 -33 99 -44 124 -19 43 -19 49 -6 76 9 16 18 49 22
74 3 25 9 45 13 45 9 0 250 -271 287 -322 25 -37 35 -68 98 -303 41 -153 42
-162 14 -191 -12 -12 -23 -41 -26 -66 -7 -64 -21 -94 -59 -123 -18 -14 -46
-47 -61 -73 -22 -38 -28 -59 -28 -112 0 -101 20 -221 44 -269 12 -23 20 -46
16 -49 -9 -10 -69 26 -137 83 -73 60 -110 121 -137 227 -22 84 -47 332 -56
553 -4 83 -10 166 -14 185 -7 35 -7 35 -20 -25 -7 -33 -16 -128 -18 -210 -9
-263 35 -466 142 -660 30 -55 77 -126 104 -157 l49 -57 -30 -78 c-39 -98 -39
-143 1 -269 37 -118 50 -140 127 -204 68 -57 120 -84 210 -106 35 -9 75 -27
89 -40 14 -12 54 -37 90 -54 l65 -31 0 -48 c0 -74 -26 -145 -70 -192 -22 -24
-40 -46 -40 -50 0 -16 -41 -18 -202 -10 -128 5 -171 11 -185 23 -48 41 -169
52 -201 18 -25 -27 -122 -40 -299 -40 l-143 0 0 -300 0 -300 6402 0 6401 0 -6
243 c-5 213 -9 249 -28 302 -25 69 -21 153 8 208 16 29 18 75 21 483 l3 451
-48 21 c-26 11 -66 23 -88 27 -55 10 -62 18 -70 82 -11 88 -40 171 -90 254
-51 87 -148 197 -191 219 -69 34 -94 60 -94 96 0 19 -7 51 -15 71 -8 19 -15
42 -15 50 0 8 29 63 64 122 35 58 85 147 112 196 26 50 49 92 50 93 1 2 26
-15 56 -39 57 -45 113 -73 128 -64 22 13 8 49 -34 89 -24 22 -46 48 -49 57 -3
9 5 51 19 93 13 42 24 95 24 117 0 50 15 79 41 79 20 0 23 4 33 50 3 14 40 63
81 110 77 86 94 124 81 175 -9 34 -21 25 -51 -38 -26 -56 -127 -184 -152 -194
-8 -3 -36 -1 -62 6 -100 26 -91 27 -91 -13 0 -33 -3 -36 -27 -36 -32 0 -78
-26 -110 -61 -44 -48 -136 -175 -150 -207 l-14 -33 -36 22 -35 22 -40 -41
c-43 -46 -53 -49 -84 -27 -18 12 -22 28 -26 90 -6 90 -25 117 -96 135 -109 26
-122 31 -116 42 10 16 -16 28 -63 28 -31 0 -46 -5 -56 -20 -7 -11 -43 -42 -78
-69 -92 -69 -132 -117 -119 -141 6 -10 15 -22 20 -25 7 -4 7 -13 0 -25 -15
-28 -40 -204 -40 -283 0 -64 1 -68 28 -78 51 -21 57 -26 60 -54 4 -34 -13 -54
-30 -37 -19 19 -35 14 -41 -10 -3 -13 -18 -54 -33 -91 -25 -60 -36 -74 -89
-112 -104 -75 -135 -123 -135 -214 0 -28 -5 -81 -12 -118 -11 -67 -11 -69 21
-124 l31 -56 -24 -16 c-14 -10 -30 -36 -39 -64 -8 -26 -27 -75 -41 -108 -25
-59 -34 -125 -17 -125 5 0 11 18 15 40 3 22 10 40 14 40 5 0 19 -25 31 -55 26
-62 70 -105 108 -105 40 0 22 -22 -53 -63 -108 -59 -163 -125 -178 -210 -12
-68 6 -99 105 -172 49 -37 97 -77 105 -90 14 -22 13 -27 -20 -77 -20 -29 -41
-59 -47 -66 -11 -13 -43 -8 -66 10 -17 13 -17 85 0 92 16 6 -20 36 -45 36 -22
0 -22 -3 -3 -40 14 -27 14 -30 0 -30 -9 0 -29 7 -46 15 -16 9 -34 13 -39 10
-14 -8 -13 8 1 22 8 8 8 13 0 17 -7 5 -7 13 2 27 10 17 9 22 -7 35 -45 33 -92
2 -104 -66 l-7 -45 -23 36 c-12 20 -22 41 -22 47 0 6 -9 16 -20 22 -11 6 -20
21 -20 35 0 37 -19 40 -26 5 -4 -17 -12 -29 -18 -27 -40 17 -46 18 -46 9 0 -6
18 -26 41 -45 25 -22 36 -38 29 -42 -8 -5 -8 -10 0 -21 27 -31 0 -31 -70 1
-75 34 -103 38 -61 9 24 -17 71 -86 71 -105 0 -6 -7 -8 -17 -5 -9 4 -20 1 -24
-6 -16 -26 -126 103 -178 209 -43 87 -49 127 -60 393 -10 244 -45 505 -107
795 -41 194 -41 177 2 214 35 32 38 32 51 15 9 -12 13 -50 13 -114 l0 -95 43
-46 42 -46 39 13 c50 18 73 39 80 73 3 14 10 112 16 216 5 105 16 217 25 250
25 102 20 140 -34 276 -28 68 -61 162 -75 209 -57 193 -119 347 -197 491 -58
108 -100 148 -190 179 -59 20 -78 32 -96 59 -13 19 -36 42 -52 52 -19 11 -32
29 -36 51 -8 38 -23 60 -36 52 -16 -10 -9 17 12 47 16 23 26 28 41 23 18 -5
20 -3 13 12 -26 62 -15 88 40 98 30 6 35 11 35 34 0 34 -29 137 -65 227 -26
68 -29 71 -86 98 -50 23 -70 27 -152 27 -142 0 -214 -32 -260 -114 -41 -74
-57 -135 -57 -218 0 -84 8 -97 73 -112 26 -6 27 -9 20 -49 -6 -39 -5 -41 11
-27 16 13 20 12 32 -4 19 -26 9 -36 -34 -36 -48 0 -58 -8 -67 -48 -5 -24 -13
-33 -33 -38 -51 -10 -57 -12 -72 -18 -23 -9 -55 55 -45 91 3 15 6 39 5 53 -8
130 -1 333 14 388 21 81 20 96 -4 175 -14 45 -27 68 -40 72 -10 3 -28 21 -39
39 -18 28 -21 56 -26 207 -4 96 -8 184 -11 197 -5 24 -29 30 -37 9 -3 -8 -6
-115 -8 -238 -2 -176 -6 -229 -17 -247 -13 -19 -14 -64 -9 -280 7 -255 6 -258
-19 -347 -14 -49 -29 -130 -34 -180 -11 -126 -39 -198 -102 -259 -28 -27 -62
-74 -77 -105 -23 -50 -26 -67 -26 -171 1 -97 4 -122 22 -160 45 -93 99 -130
191 -130 l62 0 0 -38 c0 -53 -11 -59 -32 -20 -27 49 -13 -3 19 -67 40 -81 111
-145 163 -145 11 0 20 -2 20 -4 0 -2 -15 -29 -34 -61 -19 -31 -49 -85 -67
-120 l-33 -63 22 -65 c30 -88 31 -247 1 -327 -41 -112 -34 -378 13 -492 19
-48 21 -72 22 -258 0 -199 -1 -207 -28 -290 -24 -73 -28 -96 -23 -160 7 -98
20 -125 79 -157 56 -31 63 -47 55 -141 -4 -56 -9 -70 -32 -89 -23 -21 -36 -23
-123 -22 -53 1 -137 4 -187 8 -87 6 -90 7 -104 35 l-14 29 -14 -26 c-13 -26
-17 -27 -94 -27 -45 0 -113 8 -151 17 -59 14 -80 15 -136 5 -82 -14 -94 -5
-117 83 -21 84 -20 174 3 182 9 3 35 22 57 40 53 45 57 48 77 55 37 15 36 182
-4 387 -20 106 -21 124 -11 280 l11 167 43 84 c59 116 61 159 16 275 -40 105
-38 113 44 140 65 22 115 78 125 141 5 38 15 56 52 91 l45 44 -6 60 c-6 53 -3
69 32 157 22 53 43 114 46 134 8 44 -10 217 -36 347 -10 51 -19 128 -19 170 0
42 -6 99 -14 126 -45 166 -51 182 -86 225 -21 25 -52 69 -70 98 -35 58 -94
112 -148 138 -20 9 -45 28 -55 41 -13 17 -29 23 -56 23 -20 0 -43 6 -49 12 -7
7 -30 17 -50 23 -47 13 -72 59 -72 132 0 46 4 57 39 97 28 33 42 59 46 91 l7
45 55 -7 c55 -6 55 -6 48 18 -12 38 -55 142 -69 164 -7 11 -20 40 -30 64 -22
57 -71 128 -99 142 -12 7 -46 17 -77 23 -48 10 -57 15 -69 44 -12 25 -21 32
-43 32 -26 0 -28 -3 -28 -39 0 -39 -1 -40 -53 -55 -86 -25 -133 -93 -157 -223
-6 -35 -17 -82 -25 -104 -27 -74 -17 -99 36 -99 12 0 23 -10 29 -26 6 -14 21
-40 34 -57 45 -59 57 -184 22 -232 -11 -15 -15 -16 -34 -4 -28 18 -36 8 -20
-26 11 -25 10 -29 -14 -50 -28 -24 -208 -89 -208 -76 0 5 7 28 15 51 23 66 19
111 -14 156 -22 29 -28 46 -24 66 3 18 1 28 -6 28 -8 0 -9 5 -2 19 7 12 8 80
4 183 -5 138 -3 172 10 213 10 27 17 68 17 92 0 51 -23 113 -43 113 -7 0 -23
13 -35 30 -21 28 -22 40 -22 217 0 103 -4 194 -9 202 -5 8 -16 11 -25 8 -14
-6 -16 -31 -16 -196 0 -181 -9 -256 -30 -235 -4 5 -10 23 -12 39 -3 26 -7 30
-33 30 l-30 0 0 -150 0 -150 38 -3 38 -3 -4 -127 c-4 -117 -26 -252 -46 -277
-5 -5 -12 -39 -16 -75 -4 -36 -20 -99 -35 -140 -16 -41 -45 -120 -65 -175 -20
-55 -64 -158 -98 -230 -55 -116 -62 -137 -62 -192 0 -78 19 -106 105 -149 35
-18 72 -41 82 -52 19 -18 19 -19 -19 -57 -44 -44 -30 -61 18 -21 17 14 34 26
38 26 16 0 31 -26 31 -56 0 -43 26 -113 53 -143 31 -34 80 -52 118 -44 29 5
32 4 25 -13 -14 -36 -135 -519 -152 -604 -8 -47 -33 -127 -55 -179 -52 -126
-63 -191 -50 -315 6 -55 8 -102 6 -106 -2 -3 -9 -67 -15 -141 -14 -163 -21
-193 -60 -250 -20 -30 -30 -56 -30 -84 0 -22 -7 -78 -15 -125 -8 -47 -16 -119
-16 -161 -2 -85 8 -108 66 -149 19 -14 35 -30 35 -36 0 -7 -17 -27 -39 -47
-30 -27 -50 -36 -93 -41 -40 -5 -62 -14 -78 -31 l-23 -24 -45 39 c-25 22 -53
40 -64 40 -67 0 -208 138 -208 205 0 8 16 32 35 53 l34 39 -10 159 c-8 119
-17 175 -34 224 -47 135 -58 347 -20 419 37 73 28 200 -36 484 -22 96 -17 117
25 117 11 0 59 14 105 32 115 45 121 55 121 218 0 151 -20 331 -56 498 -26
120 -26 123 -8 143 12 13 18 34 18 57 -2 46 -84 229 -134 297 -20 28 -45 65
-54 83 -43 83 -91 117 -241 171 -33 12 -79 32 -102 44 -42 21 -42 22 -20 34
32 18 78 16 121 -6 l38 -20 -15 22 c-18 28 -61 39 -124 32 -74 -7 -83 -2 -83
55 0 53 7 80 21 80 5 0 9 -7 9 -16 0 -8 5 -12 10 -9 6 3 10 19 10 35 0 32 24
54 72 65 14 4 34 16 44 26 17 18 17 24 1 114 -9 52 -28 128 -41 167 -13 40
-28 90 -32 111 -9 37 -13 40 -84 69 -138 55 -254 49 -384 -20 -56 -31 -65 -48
-55 -111 12 -72 10 -154 -5 -180 -13 -23 -14 -23 -24 -5 -23 44 -62 189 -62
231 0 27 -6 53 -15 63 -18 20 -78 228 -100 346 -10 48 -21 99 -26 112 -6 16
-6 29 2 38 16 19 2 66 -33 115 -34 47 -66 130 -78 204 -4 28 -17 82 -28 120
-11 39 -23 82 -26 97 -11 52 -46 69 -93 46z m-2133 -670 c0 -6 -7 -5 -15 2 -8
7 -15 17 -15 22 0 6 7 5 15 -2 8 -7 15 -17 15 -22z m4210 -259 c0 -10 -4 -19
-9 -19 -12 0 -23 29 -15 41 8 14 24 0 24 -22z m1795 -149 c3 -6 -1 -7 -9 -4
-18 7 -21 14 -7 14 6 0 13 -4 16 -10z m-5975 -95 c0 -14 -4 -25 -10 -25 -5 0
-10 11 -10 25 0 14 5 25 10 25 6 0 10 -11 10 -25z m6040 -59 c-20 -25 -30 -19
-30 21 l0 37 22 -21 c18 -18 19 -24 8 -37z m-5986 -201 c3 -8 1 -15 -3 -15 -5
0 -11 7 -15 15 -3 8 -1 15 3 15 5 0 11 -7 15 -15z m2540 -165 c31 -59 56 -110
56 -114 0 -3 -13 -6 -29 -6 -53 0 -71 26 -97 140 -12 58 -23 112 -23 120 -1
25 32 -24 93 -140z m-163 58 c6 -23 14 -84 18 -134 l6 -93 -33 -6 c-40 -7 -72
1 -72 20 0 11 -8 13 -30 9 -35 -8 -36 -6 -16 106 9 50 19 78 31 85 10 5 30 20
44 32 14 12 29 23 33 23 4 0 12 -19 19 -42z m-2464 -200 c14 -15 13 -19 -2
-34 -13 -13 -15 -27 -11 -53 4 -20 9 -72 12 -116 5 -63 4 -78 -6 -68 -33 31
-76 298 -56 350 6 15 11 12 28 -22 11 -22 27 -48 35 -57z m252 35 c6 -21 11
-63 13 -93 2 -44 0 -55 -13 -58 -30 -6 -64 143 -39 173 19 23 28 18 39 -22z
m3955 -61 c-5 -33 -2 -47 11 -62 16 -17 16 -20 2 -26 -8 -3 -28 -4 -44 -2 -24
3 -28 7 -26 31 1 16 9 54 18 85 16 53 18 55 31 37 10 -14 13 -32 8 -63z m931
18 c19 -8 19 -9 -2 -9 -12 -1 -25 4 -28 9 -7 12 2 12 30 0z m1035 -114 c0 -14
-29 -31 -38 -22 -2 3 -2 12 1 21 8 19 37 20 37 1z m577 -18 c-4 -14 -36 -12
-51 3 -6 5 3 9 23 9 22 0 31 -4 28 -12z m-644 -22 c7 -19 -18 -42 -28 -26 -8
13 1 40 14 40 5 0 11 -6 14 -14z m-5845 -57 c-5 -35 -28 -36 -28 -1 0 16 3 32
7 36 11 11 25 -10 21 -35z m3856 -25 c10 -40 -12 -128 -44 -176 -16 -24 -30
-52 -30 -63 0 -11 -7 -41 -15 -67 -8 -26 -17 -75 -21 -108 -4 -33 -10 -60 -14
-60 -18 0 -53 109 -57 175 -4 61 -2 76 21 119 31 56 138 206 147 206 4 0 10
-12 13 -26z m-7076 -206 c16 -16 15 -28 -3 -28 -8 0 -19 9 -25 20 -8 15 -8 20
3 20 7 0 18 -5 25 -12z m12247 -228 c-3 -5 -10 -10 -16 -10 -5 0 -9 5 -9 10 0
6 7 10 16 10 8 0 12 -4 9 -10z m-586 -276 c3 -16 1 -17 -13 -5 -19 16 -21 34
-3 29 6 -3 14 -13 16 -24z m-7369 -47 c0 -7 -6 -22 -14 -33 -14 -18 -15 -18
-21 -1 -7 17 10 47 26 47 5 0 9 -6 9 -13z m7630 -26 c0 -13 -29 -35 -37 -28
-7 8 15 37 28 37 5 0 9 -4 9 -9z m-5591 -50 c19 -19 51 -165 51 -231 l-1 -35
-19 23 c-11 13 -25 43 -30 65 -6 23 -22 71 -36 106 -14 35 -23 70 -20 77 8 20
33 17 55 -5z m1931 -37 c6 -14 10 -37 10 -51 0 -23 -2 -24 -17 -12 -14 12 -43
68 -43 84 0 3 9 5 20 5 13 0 24 -10 30 -26z m3820 -12 c0 -13 -49 -56 -56 -49
-10 10 24 57 41 57 8 0 15 -4 15 -8z m-2170 -78 c0 -8 -5 -12 -10 -9 -6 4 -8
11 -5 16 9 14 15 11 15 -7z m86 -109 c7 -19 14 -42 14 -52 -1 -29 -50 33 -50
63 0 35 19 30 36 -11z m-1711 -22 c-4 -10 -10 -26 -12 -35 -3 -10 -9 -18 -14
-18 -13 0 -11 44 3 58 18 18 31 15 23 -5z m1785 -154 c0 -5 -4 -9 -10 -9 -5 0
-10 7 -10 16 0 8 5 12 10 9 6 -3 10 -10 10 -16z m-3646 -15 c7 -19 -10 -44
-30 -44 -15 0 -18 18 -8 44 8 21 30 20 38 0z m1866 -95 c0 -33 -35 -109 -50
-109 -14 0 -12 13 5 46 8 16 15 43 15 60 0 17 3 34 6 37 13 12 24 -4 24 -34z
m1892 -166 c24 -21 23 -39 -4 -57 -27 -19 -35 -8 -30 39 5 40 8 42 34 18z
m-4318 -213 c18 -96 36 -165 55 -205 52 -108 131 -423 131 -522 0 -19 15 -70
34 -112 25 -56 36 -97 41 -157 l7 -81 45 -33 46 -32 -6 -84 c-6 -82 -20 -129
-36 -119 -5 2 -11 -9 -15 -25 -11 -55 -116 -96 -131 -50 -7 23 -50 36 -150 44
-73 6 -83 4 -101 -29 -27 -48 -38 -23 -61 130 -29 198 -29 211 3 240 22 21 27
36 35 127 8 73 7 143 -1 244 -11 120 -10 155 4 245 8 57 25 195 36 306 19 193
29 267 35 261 2 -2 15 -68 29 -148z m-2139 -390 c25 -162 49 -348 52 -413 l6
-118 68 -76 c40 -44 73 -90 79 -111 7 -22 10 -102 8 -192 l-3 -155 -25 -3
c-14 -1 -41 6 -61 16 -33 17 -37 17 -63 1 -39 -23 -129 -32 -195 -19 -37 7
-58 7 -65 0 -14 -14 -59 -13 -74 2 -16 16 -138 16 -153 0 -7 -6 -30 -12 -50
-12 l-37 0 -16 68 c-28 123 -30 168 -12 216 17 43 59 76 99 76 26 0 58 49 47
71 -7 13 -6 28 5 51 8 18 21 78 29 133 14 93 138 519 249 858 l42 129 12 -114
c7 -62 33 -246 58 -408z m4017 -95 c40 -90 58 -169 65 -281 5 -88 3 -109 -17
-168 -12 -37 -20 -79 -17 -94 4 -19 -1 -31 -19 -45 -13 -10 -24 -27 -24 -37 0
-21 48 -46 108 -56 45 -7 47 -11 32 -65 -6 -19 -19 -84 -30 -144 -10 -60 -25
-114 -32 -121 -9 -9 -29 -10 -71 -4 -32 5 -159 14 -282 21 l-223 13 -14 45
c-7 25 -13 75 -13 111 0 71 -9 62 95 92 44 13 45 14 48 56 2 24 -2 50 -9 58
-9 12 -9 20 1 39 11 21 11 34 -3 85 -23 81 -22 102 14 200 17 47 48 136 69
199 30 87 57 141 112 225 40 61 96 155 123 208 l50 97 5 -187 c5 -175 7 -191
32 -247z m1885 -95 c50 -123 66 -172 98 -300 9 -36 30 -96 47 -135 22 -50 33
-94 39 -155 4 -47 11 -107 15 -135 6 -43 5 -48 -7 -38 -21 17 -101 21 -106 6
-3 -9 6 -13 29 -13 60 0 78 -10 78 -41 0 -15 -4 -31 -10 -34 -5 -3 -7 -19 -3
-35 5 -29 5 -30 -33 -27 -37 2 -39 1 -36 -25 3 -20 -1 -28 -12 -28 -10 0 -16
9 -16 24 0 27 -15 42 -25 26 -3 -5 -19 -10 -35 -10 -22 0 -35 10 -59 42 -34
47 -38 41 -16 -22 14 -39 14 -42 -3 -35 -9 3 -30 9 -46 12 l-29 6 29 -38 29
-39 -28 18 c-21 14 -30 16 -41 7 -9 -8 -22 -8 -38 -2 -13 5 -54 7 -90 4 -46
-4 -68 -2 -73 7 -4 7 -11 66 -16 132 -9 133 -2 164 33 154 12 -3 29 -1 38 4
22 12 34 84 21 128 -14 47 -14 157 -2 297 6 66 15 176 20 245 8 116 12 132 54
230 24 58 48 116 52 130 7 21 15 3 50 -105 23 -71 65 -186 92 -255z m2633
-567 c27 -30 30 -41 30 -101 0 -82 -36 -227 -85 -344 l-36 -87 -112 -3 c-62
-2 -141 0 -177 4 -36 4 -144 8 -240 9 -96 1 -188 4 -205 8 -27 6 -30 10 -29
44 1 26 11 50 33 77 27 34 31 47 31 98 0 33 -7 78 -15 101 -8 22 -12 41 -8 41
3 0 -5 9 -18 19 -13 11 -22 21 -19 24 3 2 84 12 180 20 170 16 178 18 256 56
44 22 114 65 155 95 67 49 76 53 94 40 26 -19 35 -18 35 4 0 28 23 53 53 56
15 1 30 6 35 10 4 4 8 -25 10 -65 3 -64 6 -76 32 -106z m-1616 26 c-3 -5 -10
-7 -15 -3 -5 3 -7 10 -3 15 3 5 10 7 15 3 5 -3 7 -10 3 -15z m-9234 -46 c0
-20 -47 -261 -54 -279 -1 -1 -58 -5 -128 -9 l-128 -7 0 41 c0 48 9 67 59 131
20 25 47 69 60 98 l24 52 84 0 83 0 0 -27z m9206 0 c-10 -10 -19 5 -10 18 6
11 8 11 12 0 2 -7 1 -15 -2 -18z m445 -82 c24 -12 65 -37 91 -56 l47 -34 -39
-117 c-26 -77 -48 -124 -65 -140 -14 -12 -25 -31 -25 -40 0 -14 -10 -16 -80
-12 -105 6 -115 17 -51 57 28 18 53 42 57 54 4 12 10 24 14 27 11 8 60 96 60
108 0 19 -17 14 -46 -13 -32 -30 -55 -32 -78 -6 -14 16 -15 23 -6 41 6 11 8
29 5 40 -4 13 4 26 30 45 41 32 46 50 9 41 -28 -7 -28 -4 -2 64 l10 25 13 -31
c8 -20 28 -39 56 -53z m-801 -51 c0 -5 -2 -10 -4 -10 -3 0 -8 5 -11 10 -3 6
-1 10 4 10 6 0 11 -4 11 -10z m235 -120 c3 -5 1 -10 -4 -10 -6 0 -11 5 -11 10
0 6 2 10 4 10 3 0 8 -4 11 -10z m-604 -51 c35 -25 37 -34 6 -35 -16 -1 -28 8
-40 27 -19 34 -7 37 34 8z m-101 -49 c12 -12 18 -25 15 -30 -11 -17 -24 -11
-40 20 -18 35 -5 40 25 10z"/>
<path d="M6355 970 c3 -5 11 -10 16 -10 6 0 7 5 4 10 -3 6 -11 10 -16 10 -6 0
-7 -4 -4 -10z"/>
<path d="M3142 4550 c0 -14 2 -19 5 -12 2 6 2 18 0 25 -3 6 -5 1 -5 -13z"/>
<path d="M12715 3910 c-3 -5 -1 -10 4 -10 6 0 11 5 11 10 0 6 -2 10 -4 10 -3
0 -8 -4 -11 -10z"/>
</g>
</svg>
